<svg width="115" height="33" fill="none" xmlns="http://www.w3.org/2000/svg"><path fill-rule="evenodd" clip-rule="evenodd" d="M7.9999 6.2c.8-1 2-1.7 3.6-1.7 2.7 0 4.6 1.9 4.5 4.9v6.1h-2V9.8c0-1.8-1.1-3.2-2.9-3.2-2 0-3.3 1.5-3.3 3.6v5.3h-2V0h2v6.2h.1ZM0 15.5v-2.6h2.5v2.6H0ZM26.5999 4.79998h-4.8v-3.7h-2v3.8h-1.9v2h1.9V12.9c0 1.7 1 2.7 2.7 2.7h4.1v-2h-3.7c-.7 0-1.1-.4-1.1-1.1V6.79998h4.8v-2Zm11.0001 1.9c.6-1.3 1.9-2.1 3.5-2.1 2.5 0 4 1.8 3.9 4.29999V15.4h-2V9.09998c0-1.6-.9-2.6-2.4-2.6-1.2 0-2.6.9-2.6 3.3V15.4h-2V9.09998c0-1.6-.9-2.6-2.4-2.6-1.6 0-2.6 1.5-2.6 3.5V15.4h-2V4.79998h1.9v1.6h.1c.6-1 1.7-1.8 3.1-1.8 1.6 0 2.8.9 3.4 2.1h.1ZM47.8 12.7c0 1.7 1 2.7 2.8 2.7h2v-2h-1.6999c-.7 0-1.1001-.4-1.1001-1.1V0h-2v12.7Zm-22.7999 5.2c1.7 0 3 .7 3.9 1.8v-1.5h2v10.6h-2v-1.6h-.1c-.8 1.1-2 1.9-3.8 1.9-3.1 0-5.4-2.3-5.4-5.6s2.3-5.6 5.4-5.6Zm-3.3 5.6c0 2 1.4 3.6 3.6 3.6s3.6-1.7 3.6-3.6c0-2-1.4-3.6-3.6-3.6s-3.6 1.6-3.6 3.6ZM44.2 22c-.5-2.4-2.6001-4.1-5.4001-4.1-3.4 0-5.5999 2.5-5.5999 5.6 0 3.1 2.1999 5.6 5.5999 5.6 2.8 0 4.9001-1.8 5.4001-4.2h-2.1001c-.3999 1.3-1.7 2.3-3.3 2.3-2.2 0-3.5999-1.6-3.5999-3.6s1.3999-3.6 3.5999-3.6c1.6 0 2.8 1 3.3 2.2H44.2V22Zm7.0001-4.1c1.7 0 3 .7 3.8999 1.8v-1.5h2v10.6h-2v-1.6H55c-.7999 1.1-2 1.9-3.7999 1.9-3.1 0-5.4001-2.3-5.4001-5.6s2.3001-5.6 5.4001-5.6Zm-3.3 5.6c0 2 1.3999 3.6 3.5999 3.6 2.1 0 3.6-1.7 3.6-3.6 0-2-1.3999-3.6-3.6-3.6-2.2 0-3.5999 1.6-3.5999 3.6Zm20.7998-3.7c-.9-1.1-2.2-1.9-3.9-1.9-3.1 0-5.4 2.3-5.4 5.6s2.2 5.6 5.4 5.6c1.7 0 3-.8 3.8-1.8h.1v1.5h2V13.4h-2v6.4Zm-3.6 7.3c-2.2 0-3.6-1.6-3.6-3.6s1.4-3.6 3.6-3.6 3.6 1.6 3.6 3.6c-.1 2-1.5 3.6-3.6 3.6ZM72.8 23.5c0-3.1 2.2-5.6 5.5-5.6 3.5 0 5.7 2.7 5.5 6.3H75c.1 1.6 1.5 2.9 3.4 2.9 1.4 0 2.5-.6 3-1.6h2.1c-.7 2.3-2.7 3.6-5.2 3.6-3.4 0-5.5-2.6-5.5-5.6Zm8.8-1.1c-.3-1.6-1.6-2.6-3.3-2.6-1.6999 0-2.9 1.1-3.2 2.6h6.5Zm16.6001-4.5c-1.6 0-2.9.8-3.6 2h-.1c-.6-1.2-1.8-2-3.4-2-1.4 0-2.5.7-3.1 1.8v-1.5h-1.9v10.6h2v-5.4c0-2 1-3.4 2.6-3.5 1.5 0 2.4 1 2.4 2.6v6.3h2v-5.6c0-2.4 1.4-3.3 2.6-3.3 1.5 0 2.3999 1 2.3999 2.6v6.3h2v-6.5c.1-2.6-1.4-4.4-3.8999-4.4Zm7.5999.2 3.6 8.9 3.4-8.9h2.1l-4.7 12.2c-.7 1.8-1.7 2.6-3.5 2.6h-2.5v-2h2.5c1 0 1.4-.3 1.7-1.2l-4.8-11.6h2.2Z" fill="#000"/></svg>